<svg width="27" height="22" viewBox="0 0 27 22" fill="none" xmlns="http://www.w3.org/2000/svg">
<path d="M7.26562 0C5.57292 0 4.27971 1.29686 3.26538 2.93457C2.25106 4.57228 1.45302 6.69284 0.888672 8.90991C0.324326 11.127 0 13.4326 0 15.4395C0 17.4463 0.229584 19.1744 1.2561 20.3149C1.72894 20.8403 2.34757 21.1806 2.98462 21.2488C3.62167 21.317 4.22291 21.1381 4.75708 20.8618C5.82541 20.3092 6.73852 19.3544 7.59277 18.3374C8.44703 17.3204 9.22018 16.228 9.82544 15.4114C10.1281 15.0031 10.392 14.6616 10.5737 14.458C10.6162 14.4104 10.6263 14.4051 10.6567 14.375H13.2031H13.208H15.7544C15.7848 14.4051 15.7951 14.4106 15.8374 14.458C16.0191 14.6616 16.2831 15.0031 16.5857 15.4114C17.191 16.228 17.9641 17.3204 18.8184 18.3374C19.6726 19.3544 20.5857 20.3092 21.6541 20.8618C22.1882 21.1381 22.7882 21.317 23.4253 21.2488C24.0623 21.1806 24.681 20.8403 25.1538 20.3149C26.1804 19.1743 26.4103 17.4463 26.4099 15.4395C26.4096 13.4326 26.0846 11.1257 25.52 8.90869C24.9554 6.69166 24.1574 4.5722 23.1433 2.93457C22.1293 1.29694 20.8376 0 19.1455 0C17.3911 0 16.2055 0.588319 15.3516 1.08765C14.4977 1.58697 14.0277 1.91895 13.208 1.91894H13.2031C12.3835 1.91894 11.9135 1.58697 11.0596 1.08765C10.2057 0.588319 9.02 0 7.26562 0ZM7.26562 1.875C8.63625 1.875 9.32558 2.24625 10.1123 2.7063C10.899 3.16635 11.8353 3.79395 13.2031 3.79394H13.208C14.5759 3.79394 15.5109 3.16635 16.2976 2.7063C17.0843 2.24625 17.7749 1.875 19.1455 1.875C19.795 1.875 20.6885 2.53118 21.5491 3.9209C22.4096 5.31061 23.1739 7.29272 23.7036 9.37256C24.2333 11.4524 24.5346 13.6377 24.5349 15.4395C24.5352 17.2412 24.1406 18.6382 23.761 19.0601C23.5307 19.3159 23.3876 19.3663 23.2263 19.3835C23.065 19.4008 22.8301 19.3599 22.5146 19.1968C21.8838 18.8705 21.0403 18.0675 20.2539 17.1313C19.4675 16.1952 18.7172 15.1392 18.092 14.2957C17.7794 13.8739 17.5014 13.5074 17.2363 13.2104C17.1038 13.062 16.9775 12.9294 16.8176 12.804C16.6577 12.6785 16.4697 12.5 16.0205 12.5H13.208H13.2031H10.3906C9.94141 12.5 9.75339 12.6785 9.59351 12.804C9.43363 12.9294 9.30733 13.062 9.1748 13.2104C8.90975 13.5074 8.6317 13.8739 8.31909 14.2957C7.69388 15.1392 6.9436 16.1952 6.15723 17.1313C5.37085 18.0675 4.52615 18.8705 3.89526 19.1968C3.57982 19.3599 3.3461 19.4008 3.18481 19.3835C3.02353 19.3663 2.88044 19.3159 2.65015 19.0601C2.27042 18.6381 1.875 17.2412 1.875 15.4395C1.875 13.6377 2.17567 11.4511 2.70508 9.37134C3.23448 7.29154 3.99894 5.31053 4.85962 3.9209C5.72029 2.53127 6.61458 1.875 7.26562 1.875ZM18.5156 5C18.267 5 18.0285 5.09877 17.8527 5.27459C17.6769 5.4504 17.5781 5.68886 17.5781 5.9375C17.5781 6.18614 17.6769 6.4246 17.8527 6.60041C18.0285 6.77623 18.267 6.875 18.5156 6.875C18.7643 6.875 19.0027 6.77623 19.1785 6.60041C19.3544 6.4246 19.4531 6.18614 19.4531 5.9375C19.4531 5.68886 19.3544 5.4504 19.1785 5.27459C19.0027 5.09877 18.7643 5 18.5156 5ZM7.87598 5.61157C7.62755 5.61545 7.39082 5.71778 7.21778 5.89608C7.04475 6.07438 6.94956 6.31407 6.95312 6.5625V7.5H6.01562C5.8914 7.49824 5.76805 7.52119 5.65277 7.56752C5.53749 7.61385 5.43256 7.68262 5.34409 7.76985C5.25562 7.85708 5.18537 7.96102 5.13742 8.07564C5.08947 8.19025 5.06477 8.31326 5.06477 8.4375C5.06477 8.56174 5.08947 8.68475 5.13742 8.79936C5.18537 8.91398 5.25562 9.01792 5.34409 9.10515C5.43256 9.19238 5.53749 9.26115 5.65277 9.30748C5.76805 9.35381 5.8914 9.37676 6.01562 9.375H6.95312V10.3125C6.95137 10.4367 6.97432 10.5601 7.02064 10.6754C7.06697 10.7906 7.13575 10.8956 7.22297 10.984C7.3102 11.0725 7.41415 11.1428 7.52876 11.1907C7.64338 11.2387 7.76638 11.2634 7.89062 11.2634C8.01487 11.2634 8.13787 11.2387 8.25249 11.1907C8.3671 11.1428 8.47105 11.0725 8.55827 10.984C8.6455 10.8956 8.71428 10.7906 8.7606 10.6754C8.80693 10.5601 8.82988 10.4367 8.82812 10.3125V9.375H9.76562C9.88985 9.37676 10.0132 9.35381 10.1285 9.30748C10.2438 9.26115 10.3487 9.19238 10.4372 9.10515C10.5256 9.01792 10.5959 8.91398 10.6438 8.79936C10.6918 8.68475 10.7165 8.56174 10.7165 8.4375C10.7165 8.31326 10.6918 8.19025 10.6438 8.07564C10.5959 7.96102 10.5256 7.85708 10.4372 7.76985C10.3487 7.68262 10.2438 7.61385 10.1285 7.56752C10.0132 7.52119 9.88985 7.49824 9.76562 7.5H8.82812V6.5625C8.82992 6.43702 8.80652 6.31246 8.75929 6.19619C8.71206 6.07993 8.64197 5.97433 8.55318 5.88565C8.46439 5.79697 8.3587 5.72702 8.24237 5.67994C8.12605 5.63286 8.00145 5.60961 7.87598 5.61157ZM16.0156 7.5C15.767 7.5 15.5285 7.59877 15.3527 7.77459C15.1769 7.9504 15.0781 8.18886 15.0781 8.4375C15.0781 8.68614 15.1769 8.9246 15.3527 9.10041C15.5285 9.27623 15.767 9.375 16.0156 9.375C16.2643 9.375 16.5027 9.27623 16.6785 9.10041C16.8544 8.9246 16.9531 8.68614 16.9531 8.4375C16.9531 8.18886 16.8544 7.9504 16.6785 7.77459C16.5027 7.59877 16.2643 7.5 16.0156 7.5ZM21.0156 7.5C20.767 7.5 20.5285 7.59877 20.3527 7.77459C20.1769 7.9504 20.0781 8.18886 20.0781 8.4375C20.0781 8.68614 20.1769 8.9246 20.3527 9.10041C20.5285 9.27623 20.767 9.375 21.0156 9.375C21.2643 9.375 21.5027 9.27623 21.6785 9.10041C21.8544 8.9246 21.9531 8.68614 21.9531 8.4375C21.9531 8.18886 21.8544 7.9504 21.6785 7.77459C21.5027 7.59877 21.2643 7.5 21.0156 7.5ZM18.5156 10C18.267 10 18.0285 10.0988 17.8527 10.2746C17.6769 10.4504 17.5781 10.6889 17.5781 10.9375C17.5781 11.1861 17.6769 11.4246 17.8527 11.6004C18.0285 11.7762 18.267 11.875 18.5156 11.875C18.7643 11.875 19.0027 11.7762 19.1785 11.6004C19.3544 11.4246 19.4531 11.1861 19.4531 10.9375C19.4531 10.6889 19.3544 10.4504 19.1785 10.2746C19.0027 10.0988 18.7643 10 18.5156 10Z" fill="white"/>
</svg>
