<svg width="30" height="29" viewBox="0 0 30 29" fill="none" xmlns="http://www.w3.org/2000/svg">
<path d="M4.21875 0C2.53125 0 1.17188 1.35938 1.17188 3.04688V9.49219C1.17188 11.4844 2.8125 13.125 4.80469 13.125C6 13.125 7.07812 12.539 7.73438 11.6249C8.39062 12.539 9.46875 13.125 10.6641 13.125C11.8594 13.125 12.9375 12.539 13.5938 11.6249C14.25 12.539 15.3281 13.125 16.5234 13.125C17.7188 13.125 18.7969 12.539 19.4531 11.6249C20.1094 12.539 21.1875 13.125 22.3828 13.125C24.375 13.125 26.0156 11.4844 26.0156 9.49219V3.04688C26.0156 1.35938 24.6562 0 22.9688 0H4.21875ZM4.21875 1.40625H7.03125V9.49219C7.03125 10.7109 6.02344 11.7188 4.80469 11.7188C3.58594 11.7188 2.57812 10.7109 2.57812 9.49219V3.04688C2.57812 2.13281 3.30469 1.40625 4.21875 1.40625ZM8.4375 1.40625H12.8906V9.49219C12.8906 10.7109 11.8828 11.7188 10.6641 11.7188C9.44531 11.7188 8.4375 10.7109 8.4375 9.49219V1.40625ZM14.2969 1.40625H18.75V9.49219C18.75 10.7109 17.7422 11.7188 16.5234 11.7188C15.3047 11.7188 14.2969 10.7109 14.2969 9.49219V1.40625ZM20.1562 1.40625H22.9688C23.8828 1.40625 24.6094 2.13281 24.6094 3.04688V9.49219C24.6094 10.7109 23.6016 11.7188 22.3828 11.7188C21.1641 11.7188 20.1562 10.7109 20.1562 9.49219V1.40625ZM28.8281 2.34375C28.4297 2.34375 28.125 2.64844 28.125 3.04688V5.39062C28.125 5.78906 28.4297 6.09375 28.8281 6.09375C29.2266 6.09375 29.5312 5.78906 29.5312 5.39062V3.04688C29.5312 2.64844 29.2266 2.34375 28.8281 2.34375ZM28.8281 9.375C28.4297 9.375 28.125 9.67969 28.125 10.0781V28.125H9.60938V16.6406C9.60938 16.2422 9.30469 15.9375 8.90625 15.9375H3.04688C2.64844 15.9375 2.34375 16.2422 2.34375 16.6406V28.125H0.703125C0.304688 28.125 0 28.4297 0 28.8281C0 29.2266 0.304688 29.5312 0.703125 29.5312H3.04688C3.44531 29.5312 3.75 29.2266 3.75 28.8281V17.3438H8.20312V28.8281C8.20312 29.2266 8.50781 29.5312 8.90625 29.5312H28.8281C29.2266 29.5312 29.5312 29.2266 29.5312 28.8281V10.0781C29.5312 9.67969 29.2266 9.375 28.8281 9.375ZM12.1875 15.9375C11.7891 15.9375 11.4844 16.2422 11.4844 16.6406V25.3125C11.4844 25.7109 11.7891 26.0156 12.1875 26.0156H25.3125C25.7109 26.0156 26.0156 25.7109 26.0156 25.3125V16.6406C26.0156 16.2422 25.7109 15.9375 25.3125 15.9375H12.1875ZM12.8906 17.3438H24.6094V24.6094H12.8906V17.3438Z" fill="white"/>
</svg>
