<svg width="28" height="28" viewBox="0 0 28 28" fill="none" xmlns="http://www.w3.org/2000/svg">
<path d="M12.1154 0L11.4663 4.11058C10.4793 4.35397 9.53726 4.71905 8.6899 5.22837L5.30048 2.8125L2.84856 5.26442L5.22837 8.65385C4.71454 9.50571 4.32242 10.4387 4.07452 11.4303L0 12.1154V15.5769L4.07452 16.2981C4.32242 17.2897 4.71454 18.2227 5.22837 19.0745L2.8125 22.4639L5.26442 24.9159L8.65385 22.5361C9.5012 23.0454 10.4432 23.4105 11.4303 23.6538L12.1154 27.7644H15.5769L16.3341 23.6538C17.3167 23.4059 18.2317 23.0138 19.0745 22.5L22.5 24.9159L24.9519 22.4639L22.5 19.0745C23.0048 18.2317 23.4105 17.3122 23.6538 16.3341L27.7644 15.5769V12.1154L23.6538 11.4303C23.4105 10.4522 23.0048 9.53275 22.5 8.6899L24.9159 5.26442L22.4639 2.8125L19.0745 5.26442C18.2317 4.75511 17.2852 4.35847 16.2981 4.11058L15.5769 0H12.1154ZM13.8822 6.34615C18.0424 6.34615 21.4183 9.72205 21.4183 13.8822C21.4183 18.0424 18.0424 21.4183 13.8822 21.4183C9.72205 21.4183 6.34615 18.0379 6.34615 13.8822C6.34615 9.72656 9.72205 6.34615 13.8822 6.34615ZM13.8822 8.1851C10.7452 8.1851 8.1851 10.7452 8.1851 13.8822C8.1851 17.0192 10.7452 19.5793 13.8822 19.5793C17.0192 19.5793 19.5793 17.0192 19.5793 13.8822C19.5793 10.7452 17.0192 8.1851 13.8822 8.1851ZM13.8462 11.5024C15.1668 11.5024 16.262 12.5571 16.262 13.8822C16.262 15.2028 15.1668 16.262 13.8462 16.262C12.5255 16.262 11.4663 15.2028 11.4663 13.8822C11.4663 12.5571 12.5255 11.5024 13.8462 11.5024Z" fill="white"/>
</svg>
